<svg height="60" width="90" fill="#ffffff" xmlns="http://www.w3.org/2000/svg" xmlns:xlink="http://www.w3.org/1999/xlink" version="1.1">
    <path id="svg_1" d="m81.670998,7.323c-2.084999,-2.084 -72.502997,-1.552999 -74.053997,0c-1.678,1.677999 -1.684,46.033003 0,47.713003c0.558,0.558998 12.150999,0.895996 26.007,1.011993l3.068001,-8.485996c0,0 1.987,-8.040001 7.919998,-8.040001c6.257,0 8.990002,9.674999 8.990002,9.674999l2.555,6.848c13.632999,-0.115997 24.956997,-0.452995 25.513996,-1.007996c1.553001,-1.554001 2.000999,-45.713003 0,-47.714003zm-57.098997,33.259001c-6.063,0 -10.978001,-4.914001 -10.978001,-10.979c0,-6.063 4.915001,-10.978001 10.978001,-10.978001s10.978998,4.915001 10.978998,10.978001c0,6.064999 -4.915998,10.979 -10.978998,10.979zm39.761999,0c-6.063,0 -10.979,-4.914001 -10.979,-10.979c0,-6.063 4.916,-10.978001 10.979,-10.978001c6.062004,0 10.977997,4.915001 10.977997,10.978001c0,6.064999 -4.915993,10.979 -10.977997,10.979z"/>
</svg>
